<?xml version="1.0" encoding="UTF-8" standalone="no"?>
<!DOCTYPE svg PUBLIC "-//W3C//DTD SVG 1.1//EN" "http://www.w3.org/Graphics/SVG/1.1/DTD/svg11.dtd">
<svg width="100%" height="100%" viewBox="0 0 487 459" version="1.1" xmlns="http://www.w3.org/2000/svg" xmlns:xlink="http://www.w3.org/1999/xlink" xml:space="preserve" xmlns:serif="http://www.serif.com/" style="fill-rule:evenodd;clip-rule:evenodd;stroke-linecap:round;stroke-linejoin:round;stroke-miterlimit:1.5;">
    <g id="Artboard1" transform="matrix(0.855246,0,0,0.932515,-32.8704,-73.1809)">
        <rect x="38.434" y="78.477" width="568.301" height="492.075" style="fill:none;"/>
        <g id="head" transform="matrix(1.16925,0,0,1.07237,-59.8276,-13.2612)">
            <g transform="matrix(1,0,0,1,85.0113,-40.1871)">
                <ellipse cx="413.666" cy="318.27" rx="18.548" ry="13.911" style="fill:none;stroke:rgb(171,109,109);stroke-width:3.63px;"/>
            </g>
            <g transform="matrix(1.81761,-0.760616,0.760616,1.81761,-430.301,76.6777)">
                <g transform="matrix(0.884615,0,0,1.28022,44.158,-79.0207)">
                    <ellipse cx="398.135" cy="263.992" rx="15.432" ry="18.004" style="fill:white;stroke:black;stroke-width:0.3px;"/>
                </g>
                <g transform="matrix(0.98947,-0.14474,0.14474,0.98947,-35.7327,63.088)">
                    <ellipse cx="393.532" cy="249.528" rx="4.376" ry="0.162" style="fill:white;stroke:black;stroke-width:0.33px;"/>
                </g>
                <g transform="matrix(-0.98947,-0.14474,-0.14474,0.98947,828.242,63.0232)">
                    <ellipse cx="393.532" cy="249.528" rx="4.376" ry="0.162" style="fill:white;stroke:black;stroke-width:0.33px;"/>
                </g>
                <g transform="matrix(-1.27583,-3.77556e-16,3.89872e-15,1.6862,898.269,-149.897)">
                    <ellipse cx="393.532" cy="249.528" rx="4.376" ry="0.162" style="fill:white;stroke:black;stroke-width:0.22px;"/>
                </g>
                <g transform="matrix(6.12323e-17,-1,1,6.12323e-17,137.489,658.781)">
                    <path d="M400.144,256.432C396.906,256.432 394.277,257.42 394.277,258.636C394.277,259.853 396.906,260.84 400.144,260.84C399.173,260.326 398.384,259.516 398.384,258.636C398.384,257.757 399.173,256.946 400.144,256.432Z" style="fill:white;stroke:black;stroke-width:0.33px;"/>
                </g>
            </g>
        </g>
    </g>
</svg>
