<?xml version="1.0" encoding="UTF-8" standalone="no"?>
<!DOCTYPE svg PUBLIC "-//W3C//DTD SVG 1.1//EN" "http://www.w3.org/Graphics/SVG/1.1/DTD/svg11.dtd">
<svg width="100%" height="100%" viewBox="0 0 487 459" version="1.1" xmlns="http://www.w3.org/2000/svg" xmlns:xlink="http://www.w3.org/1999/xlink" xml:space="preserve" xmlns:serif="http://www.serif.com/" style="fill-rule:evenodd;clip-rule:evenodd;stroke-linecap:round;stroke-linejoin:round;stroke-miterlimit:1.5;">
    <g id="Artboard1" transform="matrix(0.855246,0,0,0.932515,-32.8704,-73.1809)">
        <rect x="38.434" y="78.477" width="568.301" height="492.075" style="fill:none;"/>
        <g id="legs" transform="matrix(1.74832,0,0,1.60346,-335.486,-178.887)">
            <g transform="matrix(0.519373,0.044701,-0.0449268,0.521996,289.437,185.905)">
                <path d="M421.704,299.539C421.704,299.539 402.786,372.919 402.786,404.368C402.786,414.757 411.263,423.192 421.704,423.192C432.146,423.192 440.623,414.757 440.623,404.368C440.623,372.919 421.704,299.539 421.704,299.539Z" style="fill:white;stroke:black;stroke-width:0.84px;"/>
            </g>
            <g transform="matrix(0.512131,-0.0973068,0.0977982,0.514717,259.104,246.112)">
                <path d="M421.704,299.539C421.704,299.539 402.786,372.919 402.786,404.368C402.786,414.757 411.263,423.192 421.704,423.192C432.146,423.192 440.623,414.757 440.623,404.368C440.623,372.919 421.704,299.539 421.704,299.539Z" style="fill:white;stroke:black;stroke-width:0.84px;"/>
            </g>
        </g>
    </g>
</svg>
